<?xml version="1.0" encoding="iso-8859-1"?>
<!-- Generator: Adobe Illustrator 17.1.0, SVG Export Plug-In . SVG Version: 6.00 Build 0)  -->
<!DOCTYPE svg PUBLIC "-//W3C//DTD SVG 1.1//EN" "http://www.w3.org/Graphics/SVG/1.1/DTD/svg11.dtd">
<svg xmlns="http://www.w3.org/2000/svg" xmlns:xlink="http://www.w3.org/1999/xlink" version="1.1" id="Capa_1" x="0px" y="0px" viewBox="0 0 359.051 359.051" style="enable-background:new 0 0 359.051 359.051;" xml:space="preserve" width="40px" height="40px">
<g>
	<path d="M203.525,302.051h-49c-4.411,0-8,3.589-8,8v41c0,4.411,3.589,8,8,8h49c4.411,0,8-3.589,8-8v-41   C211.525,305.64,207.936,302.051,203.525,302.051z" fill="#00ab5e"/>
	<path d="M308.086,265.926l-50.995-75.875h16.727c2.912,0,5.369-1.374,6.574-3.674c1.212-2.314,0.934-5.14-0.742-7.559   l-52.473-75.767h18.732c2.709,0,4.976-1.282,6.063-3.43c1.085-2.14,0.783-4.711-0.807-6.88L185.332,3.033   C183.919,1.105,181.806,0,179.537,0c-2.276,0-4.396,1.111-5.816,3.047l-65.836,89.687c-1.59,2.168-1.891,4.742-0.806,6.884   c1.09,2.149,3.356,3.432,6.063,3.432h18.726l-52.466,75.778c-1.676,2.418-1.954,5.241-0.744,7.551   c1.203,2.298,3.661,3.67,6.575,3.67h16.723l-50.99,75.897c-1.785,2.654-2.065,5.715-0.748,8.189   c1.305,2.451,3.962,3.914,7.106,3.914h244.402c3.141,0,5.796-1.465,7.104-3.919C310.151,271.65,309.873,268.582,308.086,265.926z" fill="#00ab5e"/>
</g>
<g>
</g>
<g>
</g>
<g>
</g>
<g>
</g>
<g>
</g>
<g>
</g>
<g>
</g>
<g>
</g>
<g>
</g>
<g>
</g>
<g>
</g>
<g>
</g>
<g>
</g>
<g>
</g>
<g>
</g>
</svg>
