<?xml version="1.0" encoding="iso-8859-1"?>
<!-- Generator: Adobe Illustrator 18.1.1, SVG Export Plug-In . SVG Version: 6.00 Build 0)  -->
<svg xmlns="http://www.w3.org/2000/svg" xmlns:xlink="http://www.w3.org/1999/xlink" version="1.1" id="Capa_1" x="0px" y="0px" viewBox="0 0 100.208 100.208" style="enable-background:new 0 0 100.208 100.208;" xml:space="preserve" width="40px" height="40px">
<g>
	<path d="M50.104,0C22.432,0,0,22.432,0,50.104s22.432,50.104,50.104,50.104s50.104-22.432,50.104-50.104   S77.776,0,50.104,0z M57.809,20.954c4.159,0,6.739,12.959,6.739,16.681c0,3.715-3.021,6.743-6.739,6.743   c-3.722,0-6.743-3.028-6.743-6.743C51.07,33.917,53.654,20.954,57.809,20.954z M41.039,20.954   c4.051,0.104,6.735,12.959,6.735,16.681c0,3.715-3.021,6.743-6.735,6.743c-3.722,0-6.743-3.028-6.743-6.743   C34.296,33.917,36.991,20.85,41.039,20.954z M20.378,51.392c0-3.715,4.001-16.588,6.75-16.677   c2.741-0.089,6.735,12.963,6.735,16.677c0,3.718-3.021,6.746-6.735,6.746C23.399,58.138,20.378,55.111,20.378,51.392z    M72.422,74.573c-5.594,9.853-10.014,1.167-22.361,1.167c-12.351,0-16.47,8.786-22.368-1.167   c-3.081-5.207,7.115-9.284,10.397-12.34c4.098-3.826,5.107-10.787,11.971-10.787c6.542,0,7.941,6.839,12.029,10.407   C65.722,65.021,75.732,68.746,72.422,74.573z M73.091,58.138c-3.726,0-6.746-3.028-6.746-6.746c0-3.715,3.375-16.588,6.746-16.677   c3.364-0.089,6.739,12.963,6.739,16.677C79.83,55.111,76.809,58.138,73.091,58.138z" fill="#00ab5e"/>
</g>
<g>
</g>
<g>
</g>
<g>
</g>
<g>
</g>
<g>
</g>
<g>
</g>
<g>
</g>
<g>
</g>
<g>
</g>
<g>
</g>
<g>
</g>
<g>
</g>
<g>
</g>
<g>
</g>
<g>
</g>
</svg>
